<svg xmlns="http://www.w3.org/2000/svg" viewBox="0 0 24 24" width="24" height="24" aria-hidden="true"><path fill="#1a1b1f" d="M12 .5C5.65.5.5 5.65.5 12c0 5.09 3.29 9.4 7.86 10.93.58.1.79-.25.79-.55 0-.27-.01-.99-.02-1.94-3.2.69-3.88-1.54-3.88-1.54-.52-1.34-1.28-1.69-1.28-1.69-1.05-.72.08-.71.08-.71 1.16.08 1.77 1.19 1.77 1.19 1.03 1.76 2.7 1.25 3.36.96.1-.74.4-1.25.73-1.54-2.55-.29-5.24-1.28-5.24-5.7 0-1.26.45-2.29 1.19-3.1-.12-.29-.51-1.47.11-3.05 0 0 .97-.31 3.18 1.18.92-.26 1.91-.39 2.9-.39.99 0 1.98.13 2.9.39 2.2-1.49 3.17-1.18 3.17-1.18.63 1.58.23 2.76.11 3.05.74.81 1.19 1.84 1.19 3.1 0 4.43-2.69 5.41-5.25 5.7.41.36.78 1.06.78 2.13 0 1.54-.01 2.78-.01 3.16 0 .3.21.66.8.55C20.21 21.4 23.5 17.09 23.5 12 23.5 5.65 18.35.5 12 .5Z"/></svg>
